<?xml version="1.0" encoding="utf-8"?>
<!-- Generator: Adobe Illustrator 24.3.0, SVG Export Plug-In . SVG Version: 6.00 Build 0)  -->
<svg version="1.1" id="Layer_1" xmlns="http://www.w3.org/2000/svg" xmlns:xlink="http://www.w3.org/1999/xlink" x="0px" y="0px"
	 viewBox="0 0 667.9 257.9" style="enable-background:new 0 0 667.9 257.9;" xml:space="preserve">
<style type="text/css">
	.st0{font-family:'AndaleMono';}
	.st1{font-size:11px;}
	.st2{fill:none;stroke:#000000;stroke-miterlimit:10;}
	.st3{font-size:14px;}
</style>
<text transform="matrix(1 0 0 1 22.8558 133.9602)" class="st0 st1">‘Helium’</text>
<rect x="8.8" y="89.3" class="st2" width="81" height="81"/>
<text transform="matrix(1 0 0 1 108.159 133.9602)" class="st0 st1">‘Neon’</text>
<rect x="89.8" y="89.3" class="st2" width="81" height="81"/>
<text transform="matrix(1 0 0 1 182.7416 133.9602)" class="st0 st1">‘Argon’</text>
<rect x="170.4" y="89.3" class="st2" width="81" height="81"/>
<g>
	<g>
		<line class="st2" x1="10" y1="25.2" x2="10" y2="56.4"/>
		<g>
			<polygon points="10,64.8 5.1,52.9 10,55.8 14.8,52.9 			"/>
		</g>
	</g>
</g>
<text transform="matrix(1 0 0 1 9.9637 17.0321)" class="st0 st1">elements[0] == ‘Helium’</text>
<text transform="matrix(1 0 0 1 5.7633 83.3901)" class="st0 st3">0</text>
<text transform="matrix(1 0 0 1 85.559 83.3901)" class="st0 st3">1</text>
<text transform="matrix(1 0 0 1 167.7633 83.3902)" class="st0 st3">2</text>
<g>
	<g>
		<line class="st2" x1="170.4" y1="234.8" x2="170.4" y2="203.6"/>
		<g>
			<polygon points="170.4,195.2 175.2,207.1 170.4,204.2 165.6,207.1 			"/>
		</g>
	</g>
</g>
<text transform="matrix(1 0 0 1 170.4099 249.6534)" class="st0 st1">elements[-1] == ‘Argon’</text>
<text transform="matrix(1 0 0 1 0.3586 186.8193)" class="st0 st3">-3</text>
<text transform="matrix(1 0 0 1 81.3587 186.8193)" class="st0 st3">-2</text>
<text transform="matrix(1 0 0 1 162.0086 186.8194)" class="st0 st3">-1</text>
</svg>
