<?xml version="1.0" encoding="UTF-8" standalone="no"?>
<svg
   xmlns:dc="http://purl.org/dc/elements/1.1/"
   xmlns:cc="http://creativecommons.org/ns#"
   xmlns:rdf="http://www.w3.org/1999/02/22-rdf-syntax-ns#"
   xmlns:svg="http://www.w3.org/2000/svg"
   xmlns="http://www.w3.org/2000/svg"
   xmlns:sodipodi="http://sodipodi.sourceforge.net/DTD/sodipodi-0.dtd"
   xmlns:inkscape="http://www.inkscape.org/namespaces/inkscape"
   sodipodi:docname="drawing.svg"
   inkscape:version="1.0beta1 (32d4812, 2019-09-19)"
   id="svg8"
   version="1.1"
   viewBox="0 0 210 297"
   height="297mm"
   width="210mm">
  <defs
     id="defs2">
    <rect
       id="rect147"
       height="37.724491"
       width="74.121992"
       y="176.48996"
       x="61.610351" />
  </defs>
  <sodipodi:namedview
     inkscape:window-maximized="0"
     inkscape:window-y="23"
     inkscape:window-x="0"
     inkscape:window-height="907"
     inkscape:window-width="1600"
     showgrid="false"
     inkscape:document-rotation="0"
     inkscape:current-layer="layer1"
     inkscape:document-units="mm"
     inkscape:cy="513.66968"
     inkscape:cx="165.77825"
     inkscape:zoom="0.74223448"
     inkscape:pageshadow="2"
     inkscape:pageopacity="0.0"
     borderopacity="1.0"
     bordercolor="#666666"
     pagecolor="#ffffff"
     id="base" />
  <metadata
     id="metadata5">
    <rdf:RDF>
      <cc:Work
         rdf:about="">
        <dc:format>image/svg+xml</dc:format>
        <dc:type
           rdf:resource="http://purl.org/dc/dcmitype/StillImage" />
        <dc:title></dc:title>
      </cc:Work>
    </rdf:RDF>
  </metadata>
  <g
     id="layer1"
     inkscape:groupmode="layer"
     inkscape:label="Layer 1">
    <g
       inkscape:label="Warstwa 1"
       id="layer1-0"
       transform="matrix(0.26458333,0,0,0.26458333,99.435409,22.676052)">
      <path
         sodipodi:type="star"
         style="fill:none;fill-rule:evenodd;stroke:#000000;stroke-width:2.02021;stroke-linecap:butt;stroke-linejoin:miter;stroke-miterlimit:4;stroke-dasharray:none;stroke-opacity:1"
         id="path2199"
         sodipodi:sides="6"
         sodipodi:cx="170"
         sodipodi:cy="457.36218"
         sodipodi:r1="49.979588"
         sodipodi:r2="43.283592"
         sodipodi:arg1="1.0471976"
         sodipodi:arg2="1.5707963"
         inkscape:flatsided="true"
         inkscape:rounded="0"
         inkscape:randomized="0"
         d="m 194.98979,500.64578 -49.97959,-10e-6 -24.98979,-43.28359 24.9898,-43.28359 49.97959,0 24.98979,43.2836 z"
         transform="matrix(0.8573603,0.4949972,-0.4949972,0.8573603,202.91459,18.108785)" />
      <path
         inkscape:connector-curvature="0"
         style="fill:none;fill-rule:evenodd;stroke:#000000;stroke-width:2;stroke-linecap:butt;stroke-linejoin:miter;stroke-miterlimit:4;stroke-dasharray:none;stroke-opacity:1"
         d="M 156.20966,474.54984 121.9746,454.78422 m 6.8e-4,79.06131 34.22901,-19.78638 m -68.470136,-39.53125 0.0061,39.55199"
         id="path3173"
         sodipodi:nodetypes="cccccc" />
      <path
         inkscape:connector-curvature="0"
         style="fill:none;fill-rule:evenodd;stroke:#000000;stroke-width:2;stroke-linecap:butt;stroke-linejoin:miter;stroke-miterlimit:4;stroke-dasharray:none;stroke-opacity:1"
         d="m 165.08534,469.73963 43.32057,-25.01114 34.67831,20.02154"
         id="path2186" />
      <text
         xml:space="preserve"
         style="font-style:normal;font-variant:normal;font-weight:normal;font-stretch:normal;line-height:0%;font-family:'Bitstream Vera Sans';text-align:start;writing-mode:lr-tb;text-anchor:start;fill:#000000;fill-opacity:1;stroke:none;stroke-width:1px;stroke-linecap:butt;stroke-linejoin:miter;stroke-opacity:1"
         x="243.87997"
         y="480.81104"
         id="text3159"><tspan
           sodipodi:role="line"
           id="tspan3161"
           x="243.87997"
           y="480.81104"
           style="font-size:28px;line-height:1.25">OH</tspan></text>
    </g>
    <g
       transform="matrix(0.34463876,0,0,0.34463876,66.361669,123.4089)"
       id="g143"
       style="overflow:visible">
      <path
         inkscape:connector-curvature="0"
         style="fill:#231f20"
         d="m 3.37625,104.59815 -1.615,0.90345 V 66.88315 l 1.615,0.95 z"
         id="polygon3" />
      <path
         inkscape:connector-curvature="0"
         style="fill:#231f20"
         d="m 7.46125,70.635651 h 1.615 v 31.159999 h -1.615 z"
         id="rect5" />
      <path
         inkscape:connector-curvature="0"
         style="fill:#231f20"
         d="m 35.24875,122.98065 v 1.8525 l -33.4875,-19.33155 1.615,-0.90345 z"
         id="polygon7" />
      <path
         inkscape:connector-curvature="0"
         style="fill:#231f20"
         d="m 67.07375,104.59815 1.615,0.90345 -33.44,19.33155 v -1.8525 z"
         id="polygon9" />
      <path
         inkscape:connector-curvature="0"
         style="fill:#231f20"
         d="m 61.84875,101.08315 0.8075,1.425 -27.0275,15.58095 -0.8075,-1.425 z"
         id="polygon11" />
      <path
         inkscape:connector-curvature="0"
         style="fill:#231f20"
         d="m 67.07375,67.83315 1.615,-0.95 v 38.61845 l -1.615,-0.90345 z"
         id="polygon13" />
      <path
         inkscape:connector-curvature="0"
         style="fill:#231f20"
         d="m 35.24875,49.45065 v -0.95 l 0.8075,-0.475 32.6325,18.8575 -1.615,0.95 z"
         id="polygon15" />
      <path
         inkscape:connector-curvature="0"
         style="fill:#231f20"
         d="m 34.82125,55.72065 0.8075,-1.3775 27.0275,15.58 -0.8075,1.3775 z"
         id="polygon17" />
      <path
         inkscape:connector-curvature="0"
         style="fill:#231f20"
         d="m 3.37625,67.83315 -1.615,-0.95 32.68,-18.8575 0.8075,0.475 v 0.95 z"
         id="polygon19" />
      <g
         id="g21"
         transform="matrix(0.95,0,0,0.95,1.76125,3.20085)">
	<path
   inkscape:connector-curvature="0"
   style="fill:#231f20"
   d="m 40.694,11.457 2.281,0.574 c -0.477,1.87 -1.333,3.296 -2.569,4.277 -1.237,0.981 -2.75,1.473 -4.537,1.473 -1.85,0 -3.354,-0.377 -4.513,-1.132 -1.159,-0.754 -2.041,-1.848 -2.646,-3.278 -0.605,-1.431 -0.907,-2.968 -0.907,-4.609 0,-1.79 0.341,-3.353 1.024,-4.686 C 29.51,2.743 30.481,1.729 31.742,1.038 33.001,0.347 34.388,0 35.902,0 c 1.717,0 3.16,0.438 4.33,1.314 1.171,0.877 1.985,2.108 2.446,3.697 l -2.234,0.527 c -0.398,-1.25 -0.975,-2.16 -1.731,-2.73 -0.756,-0.57 -1.709,-0.855 -2.855,-0.855 -1.318,0 -2.42,0.316 -3.306,0.949 -0.885,0.633 -1.507,1.482 -1.866,2.549 -0.359,1.067 -0.538,2.166 -0.538,3.299 0,1.461 0.212,2.736 0.637,3.826 0.425,1.09 1.085,1.904 1.982,2.443 0.897,0.539 1.867,0.809 2.912,0.809 1.271,0 2.346,-0.367 3.227,-1.102 0.881,-0.735 1.475,-1.824 1.788,-3.269 z"
   id="path23" />

	<path
   inkscape:connector-curvature="0"
   style="fill:#231f20"
   d="M 45.87,17.484 V 0.297 h 2.281 V 7.36 h 8.891 V 0.297 h 2.281 V 17.485 H 57.042 V 9.391 h -8.891 v 8.094 H 45.87 Z"
   id="path25" />

</g>
      <g
         id="g27"
         transform="matrix(0.95,0,0,0.95,1.76125,3.20085)">
	<path
   inkscape:connector-curvature="0"
   style="fill:#231f20"
   d="m 60.92,18.578 1.578,-0.219 c 0.182,0.896 0.492,1.542 0.928,1.938 0.436,0.395 0.972,0.593 1.607,0.593 0.752,0 1.386,-0.258 1.898,-0.772 0.513,-0.516 0.77,-1.154 0.77,-1.916 0,-0.726 -0.238,-1.324 -0.717,-1.796 -0.477,-0.472 -1.083,-0.707 -1.818,-0.707 -0.301,0 -0.676,0.059 -1.123,0.176 l 0.178,-1.391 c 0.105,0.012 0.191,0.018 0.256,0.018 0.674,0 1.281,-0.175 1.82,-0.526 0.54,-0.351 0.811,-0.892 0.811,-1.623 0,-0.579 -0.197,-1.059 -0.592,-1.438 -0.394,-0.38 -0.902,-0.57 -1.525,-0.57 -0.617,0 -1.131,0.194 -1.543,0.582 -0.412,0.388 -0.676,0.97 -0.793,1.746 l -1.578,-0.281 c 0.193,-1.062 0.633,-1.885 1.32,-2.468 0.686,-0.584 1.539,-0.876 2.561,-0.876 0.703,0 1.352,0.15 1.944,0.452 0.593,0.301 1.046,0.712 1.36,1.232 0.313,0.521 0.471,1.073 0.471,1.658 0,0.556 -0.15,1.062 -0.449,1.518 -0.299,0.456 -0.74,0.818 -1.326,1.088 0.762,0.176 1.354,0.541 1.779,1.094 0.424,0.555 0.637,1.247 0.637,2.079 0,1.126 -0.412,2.079 -1.233,2.861 -0.821,0.782 -1.86,1.174 -3.116,1.174 -1.134,0 -2.074,-0.337 -2.822,-1.009 -0.751,-0.674 -1.177,-1.546 -1.283,-2.617 z"
   id="path29" />

</g>
      <path
         inkscape:connector-curvature="0"
         style="fill:#231f20"
         d="m 34.44125,22.18565 h 1.615 v 25.84 l -0.8075,0.475 -0.8075,-0.475 z"
         id="polygon31" />
    </g>
    <text
       y="0"
       x="15.887868"
       transform="translate(44.839715,-62.494206)"
       style="font-style:normal;font-weight:normal;font-size:10.5833px;line-height:1.25;font-family:sans-serif;shape-inside:url(#rect147);fill:#000000;fill-opacity:1;stroke:none"
       id="text145"
       xml:space="preserve"><tspan
         x="83.705451"
         y="186.27772"
         sodipodi:role="line"><tspan
           style="font-style:normal;font-variant:normal;font-weight:normal;font-stretch:normal;font-family:'CMU Serif';-inkscape-font-specification:'CMU Serif';text-align:center;text-anchor:middle">benzyl</tspan><tspan
           dx="2.9352112"
           style="font-style:normal;font-variant:normal;font-weight:normal;font-stretch:normal;font-family:'CMU Serif';-inkscape-font-specification:'CMU Serif';text-align:center;text-anchor:middle" /></tspan><tspan
         x="82.516897"
         y="199.63886"
         sodipodi:role="line"><tspan
           style="font-style:normal;font-variant:normal;font-weight:normal;font-stretch:normal;font-family:'CMU Serif';-inkscape-font-specification:'CMU Serif';text-align:center;text-anchor:middle">alcohol</tspan></tspan></text>
    <text
       xml:space="preserve"
       id="text153"
       style="font-style:normal;font-weight:normal;font-size:10.5833px;line-height:1.25;font-family:sans-serif;shape-inside:url(#rect147);fill:#000000;fill-opacity:1;stroke:none"
       transform="translate(0.33959699,-11.499792)"><tspan
         x="61.609375"
         y="186.27772"
         sodipodi:role="line"><tspan
           style="font-style:normal;font-variant:normal;font-weight:normal;font-stretch:normal;font-family:'CMU Serif';-inkscape-font-specification:'CMU Serif'">toluene</tspan></tspan></text>
  </g>
</svg>
