<?xml version="1.0" encoding="utf-8"?>
<!-- Generator: Adobe Illustrator 25.0.0, SVG Export Plug-In . SVG Version: 6.00 Build 0)  -->
<svg version="1.1" id="Layer_1" xmlns="http://www.w3.org/2000/svg" xmlns:xlink="http://www.w3.org/1999/xlink" x="0px" y="0px"
	 viewBox="0 0 281.76 134.86" style="enable-background:new 0 0 281.76 134.86;" xml:space="preserve">
<style type="text/css">
	.st0{fill:none;stroke:#4BBDC9;stroke-width:0.5;stroke-miterlimit:10;}
	.st1{fill:none;stroke:#4BBDC9;stroke-miterlimit:10;}
	.st2{fill:#57A332;stroke:#000000;stroke-miterlimit:10;}
	.st3{fill:none;stroke:#000000;stroke-miterlimit:10;}
	.st4{fill:none;stroke:#000000;stroke-miterlimit:10;stroke-dasharray:1.9553,1.9553;}
	.st5{fill:none;stroke:#000000;stroke-miterlimit:10;stroke-dasharray:2.0119,2.0119;}
	.st6{fill:none;stroke:#000000;stroke-miterlimit:10;stroke-dasharray:2.0081,2.0081;}
</style>
<g>
	<line class="st0" x1="198.26" y1="134.86" x2="198.26" y2="0"/>
	<line class="st0" x1="16.57" y1="16.14" x2="208.46" y2="16.14"/>
	<line class="st1" x1="33.03" y1="134.86" x2="33.03" y2="0"/>
	<line class="st0" x1="53.68" y1="134.86" x2="53.68" y2="0"/>
	<line class="st0" x1="74.34" y1="134.86" x2="74.34" y2="0"/>
	<line class="st0" x1="94.99" y1="134.86" x2="94.99" y2="0"/>
	<line class="st0" x1="115.65" y1="134.86" x2="115.65" y2="0"/>
	<line class="st0" x1="136.3" y1="134.86" x2="136.3" y2="0"/>
	<line class="st0" x1="156.95" y1="134.86" x2="156.95" y2="0"/>
	<line class="st0" x1="177.61" y1="134.86" x2="177.61" y2="0"/>
	<line class="st1" x1="16.57" y1="117.53" x2="208.46" y2="117.53"/>
	<line class="st0" x1="16.57" y1="97.25" x2="208.46" y2="97.25"/>
	<line class="st0" x1="16.57" y1="76.97" x2="208.46" y2="76.97"/>
	<line class="st0" x1="16.57" y1="56.69" x2="208.46" y2="56.69"/>
	<line class="st0" x1="16.57" y1="36.41" x2="208.46" y2="36.41"/>
	<circle class="st2" cx="74.34" cy="36.41" r="7.21"/>
	<circle class="st2" cx="136.3" cy="97.25" r="7.21"/>
	<circle class="st2" cx="177.61" cy="36.41" r="7.21"/>
	<g>
		<g>
			<line class="st3" x1="33.03" y1="117.53" x2="33.48" y2="116.64"/>
			<line class="st4" x1="34.37" y1="114.89" x2="69.42" y2="46.07"/>
			<line class="st3" x1="69.86" y1="45.2" x2="70.32" y2="44.31"/>
			<g>
				<polygon points="72.01,47.39 74.34,36.41 66.83,44.76 				"/>
			</g>
		</g>
	</g>
	<g>
		<g>
			<line class="st3" x1="33.03" y1="117.53" x2="33.9" y2="117.04"/>
			<line class="st5" x1="35.66" y1="116.05" x2="168.13" y2="41.73"/>
			<line class="st3" x1="169.01" y1="41.24" x2="169.88" y2="40.75"/>
			<g>
				<polygon points="169.58,44.25 177.61,36.42 166.73,39.18 				"/>
			</g>
		</g>
	</g>
	<g>
		<g>
			<line class="st3" x1="33.03" y1="117.53" x2="34.01" y2="117.33"/>
			<line class="st6" x1="35.98" y1="116.95" x2="125.64" y2="99.34"/>
			<line class="st3" x1="126.63" y1="99.15" x2="127.61" y2="98.96"/>
			<g>
				<polygon points="126.22,102.19 136.3,97.25 125.1,96.49 				"/>
			</g>
		</g>
	</g>
	<g>
		<path d="M83.82,26.92c0-0.79-0.01-1.35-0.05-1.88h1.28l0.05,1.12h0.05c0.29-0.83,0.97-1.25,1.59-1.25c0.14,0,0.23,0.01,0.35,0.04
			v1.39c-0.12-0.02-0.25-0.05-0.43-0.05c-0.71,0-1.19,0.46-1.32,1.12c-0.02,0.13-0.05,0.29-0.05,0.46v3.02h-1.48V26.92z"/>
		<path d="M88.95,30.91h-0.01l-0.79,0.43l-0.12-0.47l0.99-0.53h0.52v4.54h-0.59V30.91z"/>
	</g>
	<g>
		<path d="M186.85,26.92c0-0.79-0.01-1.35-0.05-1.88h1.28l0.05,1.12h0.05c0.29-0.83,0.97-1.25,1.59-1.25c0.14,0,0.23,0.01,0.35,0.04
			v1.39c-0.12-0.02-0.25-0.05-0.43-0.05c-0.71,0-1.19,0.46-1.32,1.12c-0.02,0.13-0.05,0.29-0.05,0.46v3.02h-1.48V26.92z"/>
		<path d="M190.64,34.88V34.5l0.48-0.47c1.16-1.1,1.68-1.69,1.69-2.38c0-0.46-0.22-0.89-0.9-0.89c-0.41,0-0.75,0.21-0.96,0.38
			l-0.2-0.43c0.31-0.27,0.76-0.46,1.29-0.46c0.98,0,1.39,0.67,1.39,1.32c0,0.84-0.61,1.52-1.57,2.44l-0.36,0.34v0.01h2.04v0.51
			H190.64z"/>
	</g>
	<g>
		<path d="M144.31,86.08c0-0.79-0.01-1.35-0.05-1.88h1.28l0.05,1.12h0.05c0.29-0.83,0.97-1.25,1.59-1.25c0.14,0,0.23,0.01,0.35,0.04
			v1.39c-0.12-0.02-0.25-0.05-0.43-0.05c-0.71,0-1.19,0.46-1.32,1.12c-0.02,0.13-0.05,0.29-0.05,0.46v3.02h-1.48V86.08z"/>
		<path d="M148.25,93.32c0.17,0.11,0.58,0.29,1.01,0.29c0.79,0,1.03-0.5,1.03-0.88c-0.01-0.64-0.58-0.91-1.17-0.91h-0.34v-0.46h0.34
			c0.45,0,1.01-0.23,1.01-0.77c0-0.36-0.23-0.68-0.8-0.68c-0.36,0-0.71,0.16-0.91,0.3l-0.16-0.45c0.24-0.17,0.7-0.35,1.19-0.35
			c0.89,0,1.3,0.53,1.3,1.08c0,0.47-0.28,0.87-0.84,1.07v0.01c0.56,0.11,1.01,0.53,1.01,1.17c0,0.73-0.57,1.36-1.66,1.36
			c-0.51,0-0.96-0.16-1.18-0.31L148.25,93.32z"/>
	</g>
	<g>
		<path d="M228.1,39.96c0-0.79-0.01-1.35-0.05-1.88h1.28l0.05,1.12h0.05c0.29-0.83,0.97-1.25,1.59-1.25c0.14,0,0.23,0.01,0.35,0.04
			v1.39c-0.12-0.02-0.25-0.05-0.43-0.05c-0.71,0-1.19,0.46-1.32,1.12c-0.02,0.13-0.05,0.29-0.05,0.46v3.02h-1.48V39.96z"/>
		<path d="M233.23,43.95h-0.01l-0.79,0.43l-0.12-0.47l0.99-0.53h0.52v4.54h-0.59V43.95z"/>
		<path d="M238.19,39.88v-0.72h6.19v0.72H238.19z M238.19,42.23v-0.72h6.19v0.72H238.19z"/>
		<path d="M250.58,35.6c-0.88,1.18-1.51,2.73-1.51,4.91c0,2.13,0.66,3.67,1.51,4.87h-0.83c-0.76-1-1.57-2.53-1.57-4.87
			c0.01-2.36,0.82-3.9,1.57-4.91H250.58z"/>
		<path d="M251.36,43.92v-0.65l0.83-0.8c1.99-1.9,2.89-2.9,2.9-4.08c0-0.79-0.38-1.52-1.55-1.52c-0.71,0-1.29,0.36-1.66,0.66
			l-0.34-0.74c0.54-0.46,1.31-0.79,2.21-0.79c1.68,0,2.39,1.15,2.39,2.27c0,1.44-1.04,2.6-2.69,4.19l-0.62,0.58v0.02h3.5v0.88
			H251.36z"/>
		<path d="M257.17,45.4c0.26-0.71,0.59-1.99,0.72-2.87l1.18-0.12c-0.28,1.02-0.8,2.35-1.14,2.91L257.17,45.4z"/>
		<path d="M263.26,43.92V41.8h-3.62v-0.7l3.48-4.98h1.14v4.85h1.09v0.83h-1.09v2.12H263.26z M263.26,40.97v-2.6
			c0-0.41,0.01-0.82,0.04-1.22h-0.04c-0.24,0.46-0.43,0.79-0.65,1.15l-1.91,2.65v0.02H263.26z"/>
		<path d="M265.85,45.37c0.85-1.19,1.51-2.75,1.51-4.91c0-2.15-0.65-3.68-1.51-4.87h0.82c0.77,0.98,1.57,2.52,1.57,4.88
			c0,2.35-0.8,3.87-1.57,4.89H265.85z"/>
	</g>
	<g>
		<path d="M228.1,66.12c0-0.79-0.01-1.35-0.05-1.88h1.28l0.05,1.12h0.05c0.29-0.83,0.97-1.25,1.59-1.25c0.14,0,0.23,0.01,0.35,0.04
			v1.39c-0.12-0.02-0.25-0.05-0.43-0.05c-0.71,0-1.19,0.46-1.32,1.12c-0.02,0.13-0.05,0.29-0.05,0.46v3.02h-1.48V66.12z"/>
		<path d="M231.9,74.08V73.7l0.48-0.47c1.16-1.1,1.68-1.69,1.69-2.38c0-0.46-0.22-0.89-0.9-0.89c-0.41,0-0.75,0.21-0.96,0.38
			l-0.2-0.43c0.31-0.27,0.76-0.46,1.29-0.46c0.98,0,1.39,0.67,1.39,1.32c0,0.84-0.61,1.52-1.57,2.44l-0.36,0.33v0.01h2.04v0.51
			H231.9z"/>
		<path d="M238.19,66.04v-0.72h6.19v0.72H238.19z M238.19,68.39v-0.72h6.19v0.72H238.19z"/>
		<path d="M250.58,61.76c-0.88,1.18-1.51,2.73-1.51,4.91c0,2.14,0.66,3.67,1.51,4.87h-0.83c-0.76-1-1.57-2.53-1.57-4.87
			c0.01-2.36,0.82-3.9,1.57-4.91H250.58z"/>
		<path d="M256.42,62.29v0.7l-3.39,7.1h-1.09l3.38-6.9v-0.02h-3.81v-0.88H256.42z"/>
		<path d="M257.17,71.56c0.26-0.71,0.59-1.99,0.72-2.87l1.18-0.12c-0.28,1.02-0.8,2.35-1.14,2.92L257.17,71.56z"/>
		<path d="M263.26,70.08v-2.12h-3.62v-0.7l3.48-4.98h1.14v4.85h1.09v0.83h-1.09v2.12H263.26z M263.26,67.13v-2.6
			c0-0.41,0.01-0.82,0.04-1.22h-0.04c-0.24,0.46-0.43,0.79-0.65,1.15l-1.91,2.65v0.02H263.26z"/>
		<path d="M265.85,71.53c0.85-1.19,1.51-2.75,1.51-4.91c0-2.15-0.65-3.68-1.51-4.87h0.82c0.77,0.98,1.57,2.52,1.57,4.88
			c0,2.35-0.8,3.87-1.57,4.89H265.85z"/>
	</g>
	<g>
		<path d="M228.1,90.95c0-0.79-0.01-1.36-0.05-1.88h1.28l0.05,1.12h0.05c0.29-0.83,0.97-1.25,1.59-1.25c0.14,0,0.23,0.01,0.35,0.04
			v1.39c-0.12-0.02-0.25-0.05-0.43-0.05c-0.71,0-1.19,0.46-1.32,1.12c-0.02,0.13-0.05,0.29-0.05,0.46v3.02h-1.48V90.95z"/>
		<path d="M232.04,98.2c0.17,0.11,0.58,0.29,1.01,0.29c0.79,0,1.03-0.5,1.03-0.88c-0.01-0.64-0.58-0.91-1.17-0.91h-0.34v-0.46h0.34
			c0.45,0,1.01-0.23,1.01-0.77c0-0.36-0.23-0.68-0.8-0.68c-0.36,0-0.71,0.16-0.91,0.3l-0.16-0.45c0.24-0.17,0.7-0.35,1.19-0.35
			c0.89,0,1.3,0.53,1.3,1.08c0,0.47-0.28,0.87-0.84,1.07v0.01c0.56,0.11,1.01,0.53,1.01,1.17c0,0.73-0.57,1.36-1.66,1.36
			c-0.51,0-0.96-0.16-1.18-0.31L232.04,98.2z"/>
		<path d="M238.19,90.87v-0.72h6.19v0.72H238.19z M238.19,93.22V92.5h6.19v0.72H238.19z"/>
		<path d="M250.58,86.59c-0.88,1.17-1.51,2.73-1.51,4.91c0,2.13,0.66,3.67,1.51,4.87h-0.83c-0.76-1-1.57-2.53-1.57-4.87
			c0.01-2.36,0.82-3.9,1.57-4.91H250.58z"/>
		<path d="M256.01,88h-2.97l-0.3,2c0.18-0.02,0.35-0.05,0.64-0.05c0.6,0,1.2,0.13,1.68,0.42c0.61,0.35,1.12,1.02,1.12,2
			c0,1.52-1.21,2.66-2.9,2.66c-0.85,0-1.57-0.24-1.94-0.48l0.26-0.8c0.32,0.19,0.96,0.43,1.67,0.43c1,0,1.85-0.65,1.85-1.69
			c-0.01-1.01-0.68-1.73-2.24-1.73c-0.44,0-0.79,0.05-1.08,0.08l0.5-3.74h3.73V88z"/>
		<path d="M257.17,96.39c0.26-0.71,0.59-1.99,0.72-2.87l1.18-0.12c-0.28,1.02-0.8,2.35-1.14,2.92L257.17,96.39z"/>
		<path d="M262.29,88.1h-0.02l-1.36,0.73l-0.2-0.8l1.7-0.91h0.9v7.8h-1.02V88.1z"/>
		<path d="M265.85,96.36c0.85-1.19,1.51-2.75,1.51-4.91c0-2.15-0.65-3.68-1.51-4.87h0.82c0.77,0.98,1.57,2.52,1.57,4.88
			c0,2.35-0.8,3.87-1.57,4.89H265.85z"/>
	</g>
</g>
<g>
</g>
<g>
</g>
<g>
</g>
<g>
</g>
<g>
</g>
<g>
</g>
<g>
</g>
</svg>
